<?xml version="1.0" encoding="UTF-8"?>
<svg version="1.1" xmlns="http://www.w3.org/2000/svg" width="512" height="512">
<path d="M0 0 C26.18978568 21.19173497 38.81490477 53.07707204 42.79205322 85.88426208 C43.12018713 89.22283433 43.18209281 92.55858726 43.203125 95.91015625 C43.20882507 96.64012314 43.21452515 97.37009003 43.22039795 98.12217712 C43.2297792 99.65915511 43.23635428 101.19615258 43.24023438 102.7331543 C43.24987534 105.03276663 43.28093718 107.33145828 43.3125 109.63085938 C43.47101635 131.71435371 37.86643682 154.3365701 22.3515625 170.83984375 C12.55519165 179.83883558 1.26977029 186.22107445 -12 188 C-11.96392387 189.07118073 -11.92784775 190.14236145 -11.89067841 191.2460022 C-11.0066008 217.50543299 -10.1303441 243.76511629 -9.26194 270.02507019 C-8.84178433 282.72500659 -8.4192351 295.42485431 -7.99072266 308.12451172 C-7.61653684 319.21430268 -7.24717611 330.30424294 -6.88323069 341.39437485 C-6.69098662 347.24759442 -6.49658518 353.10072148 -6.29637146 358.95367432 C-5.56733005 380.31704922 -4.85568097 401.68708981 -4.67907619 423.06350517 C-4.66281381 424.7830397 -4.64007715 426.5025277 -4.61022282 428.22187996 C-4.44603152 438.26240357 -4.4329515 445.69234904 -11.3125 453.6875 C-18.4131835 459.79739045 -23.12904264 462.19659308 -32.6875 462.3125 C-33.46544922 462.34150391 -34.24339844 462.37050781 -35.04492188 462.40039062 C-42.20778684 462.47805305 -47.27462954 460.34508621 -52.6875 455.6875 C-58.35482969 449.10114387 -61.15512747 444.6187627 -61.15148926 435.74780273 C-61.15435031 435.00434412 -61.15721136 434.26088551 -61.16015911 433.49489784 C-61.16641448 430.99524981 -61.16325018 428.4957435 -61.15820312 425.99609375 C-61.15751863 425.11897673 -61.15683413 424.2418597 -61.15612888 423.33816338 C-61.12327273 400.72200583 -60.35960407 378.13015139 -59.58649635 355.52948761 C-59.38548502 349.61080058 -59.19216605 343.6918616 -58.9979248 337.77294922 C-58.63131994 326.63578004 -58.25810239 315.49884339 -57.88232183 304.36198044 C-57.45382727 291.65288389 -57.03298943 278.94353711 -56.61269665 266.2341671 C-55.75013191 240.15583061 -54.8782705 214.07781195 -54 188 C-54.61819107 187.86518723 -55.23638214 187.73037445 -55.87330627 187.59147644 C-56.68412155 187.41328873 -57.49493683 187.23510101 -58.33032227 187.05151367 C-59.13413834 186.8754509 -59.93795441 186.69938812 -60.76612854 186.51799011 C-75.84882706 183.02061399 -89.21993452 172.02695072 -97.36035156 159.04638672 C-101.95194917 151.20001372 -104.89710009 142.83360669 -107 134 C-107.18618896 133.22833496 -107.37237793 132.45666992 -107.56420898 131.66162109 C-109.3698123 123.15304666 -109.35445426 114.6528078 -109.3125 106 C-109.31067719 105.22343048 -109.30885437 104.44686096 -109.30697632 103.64675903 C-109.26038171 91.86409027 -108.75122088 80.50313613 -106 69 C-105.83371094 68.26652344 -105.66742188 67.53304687 -105.49609375 66.77734375 C-99.49122658 40.84521369 -86.28629643 13.18712815 -63.5 -1.875 C-43.82132617 -13.69335369 -18.8372601 -13.78336105 0 0 Z " fill="#FBB712" transform="translate(385,30)"/>
<path d="M0 0 C3.12578143 1.6720747 5.39281175 3.7856235 7 7 C7.10209688 8.55374263 7.14214035 10.11175788 7.15148926 11.66882324 C7.15983292 12.65313828 7.16817657 13.63745331 7.17677307 14.65159607 C7.1830497 16.27715172 7.1830497 16.27715172 7.18945312 17.93554688 C7.19774643 19.0737941 7.20603973 20.21204132 7.21458435 21.38478088 C7.23201427 23.86259046 7.24717297 26.34041678 7.26036072 28.81825256 C7.28133158 32.73398214 7.30835842 36.64962741 7.33703613 40.56530762 C7.4022706 49.58420103 7.45767404 58.60314994 7.51302338 67.62210846 C7.56787582 76.54238703 7.62654933 85.46261937 7.69187927 94.38282776 C7.71853879 98.25060705 7.73930208 102.11839034 7.7598877 105.98620605 C7.7764848 108.3456238 7.79335612 110.70503963 7.81054688 113.06445312 C7.8168235 114.69000877 7.8168235 114.69000877 7.82322693 116.34840393 C7.83157059 117.33271896 7.83991425 118.317034 7.84851074 119.33117676 C7.85366447 120.18953377 7.85881821 121.04789078 7.86412811 121.93225861 C7.86998336 124.06297057 7.86998336 124.06297057 9 126 C10.32 126 11.64 126 13 126 C14.20967852 123.58064296 14.12470437 122.06120511 14.12457275 119.35809326 C14.12713577 118.37955887 14.12969879 117.40102448 14.13233948 116.39283752 C14.13023972 115.31541794 14.12813995 114.23799835 14.12597656 113.12792969 C14.1278447 111.99610764 14.12971283 110.86428558 14.13163757 109.69816589 C14.13564917 107.23344908 14.1377171 104.76872853 14.13809967 102.30400848 C14.14194472 96.3931061 14.16802586 90.4822995 14.19131613 84.57144976 C14.22642108 75.49114082 14.25298006 66.41094883 14.25048828 57.33056641 C14.24872825 50.55240988 14.27302952 43.77472117 14.3123703 36.99668121 C14.32284754 34.41153256 14.32434176 31.82633143 14.31671906 29.24117279 C14.30711708 25.62349525 14.32824579 22.00720102 14.35644531 18.38964844 C14.34624863 17.32032578 14.33605194 16.25100311 14.32554626 15.14927673 C14.43890377 7.04349375 14.43890377 7.04349375 17.41522217 3.35064697 C21.43413213 -0.3042275 24.15622063 -0.39001464 29.44921875 -0.359375 C33.55868504 0.21960034 35.21349577 1.99914929 38 5 C39.20981122 7.41962245 39.13525346 8.96474191 39.15148926 11.66882324 C39.15983292 12.65313828 39.16817657 13.63745331 39.17677307 14.65159607 C39.1830497 16.27715172 39.1830497 16.27715172 39.18945312 17.93554688 C39.19774643 19.0737941 39.20603973 20.21204132 39.21458435 21.38478088 C39.23201427 23.86259046 39.24717297 26.34041678 39.26036072 28.81825256 C39.28133158 32.73398214 39.30835842 36.64962741 39.33703613 40.56530762 C39.4022706 49.58420103 39.45767404 58.60314994 39.51302338 67.62210846 C39.56787582 76.54238703 39.62654933 85.46261937 39.69187927 94.38282776 C39.71853879 98.25060705 39.73930208 102.11839034 39.7598877 105.98620605 C39.7764848 108.3456238 39.79335612 110.70503963 39.81054688 113.06445312 C39.8168235 114.69000877 39.8168235 114.69000877 39.82322693 116.34840393 C39.83157059 117.33271896 39.83991425 118.317034 39.84851074 119.33117676 C39.85624134 120.61871227 39.85624134 120.61871227 39.86412811 121.93225861 C39.86998336 124.06297057 39.86998336 124.06297057 41 126 C42.32 126 43.64 126 45 126 C46.20967852 123.58064296 46.12470437 122.06120511 46.12457275 119.35809326 C46.12713577 118.37955887 46.12969879 117.40102448 46.13233948 116.39283752 C46.13023972 115.31541794 46.12813995 114.23799835 46.12597656 113.12792969 C46.1278447 111.99610764 46.12971283 110.86428558 46.13163757 109.69816589 C46.13564917 107.23344908 46.1377171 104.76872853 46.13809967 102.30400848 C46.14194472 96.3931061 46.16802586 90.4822995 46.19131613 84.57144976 C46.22642108 75.49114082 46.25298006 66.41094883 46.25048828 57.33056641 C46.24872825 50.55240988 46.27302952 43.77472117 46.3123703 36.99668121 C46.32284754 34.41153256 46.32434176 31.82633143 46.31671906 29.24117279 C46.30711708 25.62349525 46.32824579 22.00720102 46.35644531 18.38964844 C46.34624863 17.32032578 46.33605194 16.25100311 46.32554626 15.14927673 C46.43890377 7.04349375 46.43890377 7.04349375 49.41522217 3.35064697 C53.43413213 -0.3042275 56.15622063 -0.39001464 61.44921875 -0.359375 C65.55868504 0.21960034 67.21349577 1.99914929 70 5 C71.20981122 7.41962245 71.13525346 8.96474191 71.15148926 11.66882324 C71.15983292 12.65313828 71.16817657 13.63745331 71.17677307 14.65159607 C71.18095749 15.73529984 71.18514191 16.8190036 71.18945312 17.93554688 C71.20189308 19.64291771 71.20189308 19.64291771 71.21458435 21.38478088 C71.23201427 23.86259046 71.24717297 26.34041678 71.26036072 28.81825256 C71.28133158 32.73398214 71.30835842 36.64962741 71.33703613 40.56530762 C71.4022706 49.58420103 71.45767404 58.60314994 71.51302338 67.62210846 C71.56787582 76.54238703 71.62654933 85.46261937 71.69187927 94.38282776 C71.71853879 98.25060705 71.73930208 102.11839034 71.7598877 105.98620605 C71.7764848 108.3456238 71.79335612 110.70503963 71.81054688 113.06445312 C71.81473129 114.14815689 71.81891571 115.23186066 71.82322693 116.34840393 C71.83157059 117.33271896 71.83991425 118.317034 71.84851074 119.33117676 C71.85624134 120.61871227 71.85624134 120.61871227 71.86412811 121.93225861 C71.86998336 124.06297057 71.86998336 124.06297057 73 126 C74.32 126 75.64 126 77 126 C78.20967852 123.58064296 78.12470437 122.06120511 78.12457275 119.35809326 C78.12713577 118.37955887 78.12969879 117.40102448 78.13233948 116.39283752 C78.13023972 115.31541794 78.12813995 114.23799835 78.12597656 113.12792969 C78.1278447 111.99610764 78.12971283 110.86428558 78.13163757 109.69816589 C78.13564917 107.23344908 78.1377171 104.76872853 78.13809967 102.30400848 C78.14194472 96.3931061 78.16802586 90.4822995 78.19131613 84.57144976 C78.22642108 75.49114082 78.25298006 66.41094883 78.25048828 57.33056641 C78.24872825 50.55240988 78.27302952 43.77472117 78.3123703 36.99668121 C78.32284754 34.41153256 78.32434176 31.82633143 78.31671906 29.24117279 C78.30711708 25.62349525 78.32824579 22.00720102 78.35644531 18.38964844 C78.34624863 17.32032578 78.33605194 16.25100311 78.32554626 15.14927673 C78.43890377 7.04349375 78.43890377 7.04349375 81.41522217 3.35064697 C85.43413213 -0.3042275 88.15622063 -0.39001464 93.44921875 -0.359375 C97.55868504 0.21960034 99.21349577 1.99914929 102 5 C103.39482282 7.78964564 103.13563206 10.08033846 103.14717102 13.20274353 C103.15084771 13.84597598 103.1545244 14.48920843 103.1583125 15.15193278 C103.16936608 17.31736095 103.1731961 19.48274117 103.17700195 21.64819336 C103.18326569 23.19712477 103.18991241 24.74605467 103.19691467 26.29498291 C103.21798025 31.39325917 103.22832407 36.49153579 103.23828125 41.58984375 C103.24232884 43.34601927 103.24644576 45.10219463 103.25063133 46.85836983 C103.26969389 55.11463473 103.28391881 63.37089067 103.2922433 71.62717336 C103.30199946 81.14590389 103.32827195 90.66440085 103.36874419 100.18304914 C103.39896873 107.5454105 103.41371845 114.90770519 103.41702431 122.27012736 C103.41936895 126.66417295 103.42825154 131.05796936 103.45348549 135.45194817 C103.47688025 139.5929437 103.48095402 143.73352809 103.47072411 147.87457275 C103.47023128 149.38738439 103.47647642 150.90021703 103.49028015 152.41296577 C103.61314228 166.68653452 100.5168568 177.12855409 91 188 C83.83264662 194.69508591 73.94060748 200.20048284 64 200 C64.03607613 201.06087326 64.07215225 202.12174652 64.10932159 203.21476746 C64.99347509 229.22383722 65.86973053 255.23316435 66.73806 281.24276733 C67.15818155 293.8216378 67.58071854 306.40041783 68.00927734 318.97900391 C68.38351193 329.96331631 68.75287317 340.94778084 69.11676931 351.93244076 C69.30898148 357.72977135 69.50336957 363.5270075 69.70362854 369.32406616 C70.43526465 390.55432504 71.14545713 411.79110982 71.32092381 433.03459167 C71.33718832 434.75538117 71.35992688 436.47612413 71.38977718 438.19673157 C71.55391288 448.24531398 71.57248675 455.68602891 64.6875 463.6875 C57.5868165 469.79739045 52.87095736 472.19659308 43.3125 472.3125 C42.53455078 472.34150391 41.75660156 472.37050781 40.95507812 472.40039062 C33.79221316 472.47805305 28.72537046 470.34508621 23.3125 465.6875 C17.63975297 459.09484804 14.84487644 454.61154664 14.84851074 445.73242188 C14.84564969 444.98774155 14.84278864 444.24306122 14.83984089 443.47581482 C14.8335872 440.97341324 14.83674852 438.47115328 14.84179688 435.96875 C14.84248137 435.09111496 14.84316587 434.21347992 14.84387112 433.30924988 C14.87651081 410.83704592 15.63774474 388.38986781 16.41350365 365.93334579 C16.61456211 360.07071629 16.80785235 354.20782993 17.0020752 348.3449707 C17.36863021 337.31404594 17.7418596 326.28335825 18.11767817 315.25274563 C18.54622403 302.66456914 18.96703832 290.07613758 19.38730335 277.48768234 C20.24978876 251.65816868 21.12165804 225.82897899 22 200 C20.73397949 199.84926025 19.46795898 199.69852051 18.16357422 199.54321289 C7.49219043 198.27261603 -1.06093896 192.69455795 -8.04296875 184.64453125 C-16.05075173 173.904882 -17.59641628 163.33388543 -17.53344727 150.25073242 C-17.54051879 148.69235421 -17.54926895 147.13398287 -17.55955505 145.57562256 C-17.58190944 141.37547761 -17.57914404 137.17571189 -17.57023358 132.97553039 C-17.56510001 129.46126416 -17.57243459 125.94706772 -17.57970566 122.4328087 C-17.59665701 114.14435183 -17.59318322 105.85607933 -17.57641602 97.56762695 C-17.5594596 89.02575253 -17.57538808 80.48438784 -17.6076389 71.94256896 C-17.6343342 64.59280666 -17.64161216 57.24320306 -17.63312382 49.89339715 C-17.6281993 45.51025417 -17.63038586 41.1274185 -17.65091133 36.74431419 C-17.66927044 32.62770065 -17.66330772 28.51182247 -17.63871193 24.39524841 C-17.63370663 22.88679686 -17.63718666 21.3782892 -17.64986038 19.86988258 C-17.74898695 7.0572578 -17.74898695 7.0572578 -14.58555603 3.11860657 C-9.98956702 -0.6473503 -5.81202154 -0.8188453 0 0 Z " fill="#FCD200" transform="translate(133,20)"/>
<path d="M0 0 C3.12578143 1.6720747 5.39281175 3.7856235 7 7 C7.10209688 8.55374263 7.14214035 10.11175788 7.15148926 11.66882324 C7.15983292 12.65313828 7.16817657 13.63745331 7.17677307 14.65159607 C7.1830497 16.27715172 7.1830497 16.27715172 7.18945312 17.93554688 C7.19774643 19.0737941 7.20603973 20.21204132 7.21458435 21.38478088 C7.23201427 23.86259046 7.24717297 26.34041678 7.26036072 28.81825256 C7.28133158 32.73398214 7.30835842 36.64962741 7.33703613 40.56530762 C7.4022706 49.58420103 7.45767404 58.60314994 7.51302338 67.62210846 C7.56787582 76.54238703 7.62654933 85.46261937 7.69187927 94.38282776 C7.71853879 98.25060705 7.73930208 102.11839034 7.7598877 105.98620605 C7.7764848 108.3456238 7.79335612 110.70503963 7.81054688 113.06445312 C7.8168235 114.69000877 7.8168235 114.69000877 7.82322693 116.34840393 C7.83157059 117.33271896 7.83991425 118.317034 7.84851074 119.33117676 C7.85366447 120.18953377 7.85881821 121.04789078 7.86412811 121.93225861 C7.86998336 124.06297057 7.86998336 124.06297057 9 126 C10.32 126 11.64 126 13 126 C14.20967852 123.58064296 14.12470437 122.06120511 14.12457275 119.35809326 C14.12713577 118.37955887 14.12969879 117.40102448 14.13233948 116.39283752 C14.13023972 115.31541794 14.12813995 114.23799835 14.12597656 113.12792969 C14.1278447 111.99610764 14.12971283 110.86428558 14.13163757 109.69816589 C14.13564917 107.23344908 14.1377171 104.76872853 14.13809967 102.30400848 C14.14194472 96.3931061 14.16802586 90.4822995 14.19131613 84.57144976 C14.22642108 75.49114082 14.25298006 66.41094883 14.25048828 57.33056641 C14.24872825 50.55240988 14.27302952 43.77472117 14.3123703 36.99668121 C14.32284754 34.41153256 14.32434176 31.82633143 14.31671906 29.24117279 C14.30711708 25.62349525 14.32824579 22.00720102 14.35644531 18.38964844 C14.34624863 17.32032578 14.33605194 16.25100311 14.32554626 15.14927673 C14.43890377 7.04349375 14.43890377 7.04349375 17.41522217 3.35064697 C21.43413213 -0.3042275 24.15622063 -0.39001464 29.44921875 -0.359375 C33.55868504 0.21960034 35.21349577 1.99914929 38 5 C39.20981122 7.41962245 39.13525346 8.96474191 39.15148926 11.66882324 C39.15983292 12.65313828 39.16817657 13.63745331 39.17677307 14.65159607 C39.1830497 16.27715172 39.1830497 16.27715172 39.18945312 17.93554688 C39.19774643 19.0737941 39.20603973 20.21204132 39.21458435 21.38478088 C39.23201427 23.86259046 39.24717297 26.34041678 39.26036072 28.81825256 C39.28133158 32.73398214 39.30835842 36.64962741 39.33703613 40.56530762 C39.4022706 49.58420103 39.45767404 58.60314994 39.51302338 67.62210846 C39.56787582 76.54238703 39.62654933 85.46261937 39.69187927 94.38282776 C39.71853879 98.25060705 39.73930208 102.11839034 39.7598877 105.98620605 C39.7764848 108.3456238 39.79335612 110.70503963 39.81054688 113.06445312 C39.8168235 114.69000877 39.8168235 114.69000877 39.82322693 116.34840393 C39.83157059 117.33271896 39.83991425 118.317034 39.84851074 119.33117676 C39.85624134 120.61871227 39.85624134 120.61871227 39.86412811 121.93225861 C39.86998336 124.06297057 39.86998336 124.06297057 41 126 C42.32 126 43.64 126 45 126 C46.20967852 123.58064296 46.12470437 122.06120511 46.12457275 119.35809326 C46.12713577 118.37955887 46.12969879 117.40102448 46.13233948 116.39283752 C46.13023972 115.31541794 46.12813995 114.23799835 46.12597656 113.12792969 C46.1278447 111.99610764 46.12971283 110.86428558 46.13163757 109.69816589 C46.13564917 107.23344908 46.1377171 104.76872853 46.13809967 102.30400848 C46.14194472 96.3931061 46.16802586 90.4822995 46.19131613 84.57144976 C46.22642108 75.49114082 46.25298006 66.41094883 46.25048828 57.33056641 C46.24872825 50.55240988 46.27302952 43.77472117 46.3123703 36.99668121 C46.32284754 34.41153256 46.32434176 31.82633143 46.31671906 29.24117279 C46.30711708 25.62349525 46.32824579 22.00720102 46.35644531 18.38964844 C46.34624863 17.32032578 46.33605194 16.25100311 46.32554626 15.14927673 C46.43890377 7.04349375 46.43890377 7.04349375 49.41522217 3.35064697 C53.43413213 -0.3042275 56.15622063 -0.39001464 61.44921875 -0.359375 C65.55868504 0.21960034 67.21349577 1.99914929 70 5 C71.20981122 7.41962245 71.13525346 8.96474191 71.15148926 11.66882324 C71.15983292 12.65313828 71.16817657 13.63745331 71.17677307 14.65159607 C71.18095749 15.73529984 71.18514191 16.8190036 71.18945312 17.93554688 C71.20189308 19.64291771 71.20189308 19.64291771 71.21458435 21.38478088 C71.23201427 23.86259046 71.24717297 26.34041678 71.26036072 28.81825256 C71.28133158 32.73398214 71.30835842 36.64962741 71.33703613 40.56530762 C71.4022706 49.58420103 71.45767404 58.60314994 71.51302338 67.62210846 C71.56787582 76.54238703 71.62654933 85.46261937 71.69187927 94.38282776 C71.71853879 98.25060705 71.73930208 102.11839034 71.7598877 105.98620605 C71.7764848 108.3456238 71.79335612 110.70503963 71.81054688 113.06445312 C71.81473129 114.14815689 71.81891571 115.23186066 71.82322693 116.34840393 C71.83157059 117.33271896 71.83991425 118.317034 71.84851074 119.33117676 C71.85624134 120.61871227 71.85624134 120.61871227 71.86412811 121.93225861 C71.86998336 124.06297057 71.86998336 124.06297057 73 126 C74.32 126 75.64 126 77 126 C78.20967852 123.58064296 78.12470437 122.06120511 78.12457275 119.35809326 C78.12713577 118.37955887 78.12969879 117.40102448 78.13233948 116.39283752 C78.13023972 115.31541794 78.12813995 114.23799835 78.12597656 113.12792969 C78.1278447 111.99610764 78.12971283 110.86428558 78.13163757 109.69816589 C78.13564917 107.23344908 78.1377171 104.76872853 78.13809967 102.30400848 C78.14194472 96.3931061 78.16802586 90.4822995 78.19131613 84.57144976 C78.22642108 75.49114082 78.25298006 66.41094883 78.25048828 57.33056641 C78.24872825 50.55240988 78.27302952 43.77472117 78.3123703 36.99668121 C78.32284754 34.41153256 78.32434176 31.82633143 78.31671906 29.24117279 C78.30711708 25.62349525 78.32824579 22.00720102 78.35644531 18.38964844 C78.34624863 17.32032578 78.33605194 16.25100311 78.32554626 15.14927673 C78.43890377 7.04349375 78.43890377 7.04349375 81.41522217 3.35064697 C85.43413213 -0.3042275 88.15622063 -0.39001464 93.44921875 -0.359375 C97.55868504 0.21960034 99.21349577 1.99914929 102 5 C103.39482282 7.78964564 103.13563206 10.08033846 103.14717102 13.20274353 C103.15084771 13.84597598 103.1545244 14.48920843 103.1583125 15.15193278 C103.16936608 17.31736095 103.1731961 19.48274117 103.17700195 21.64819336 C103.18326569 23.19712477 103.18991241 24.74605467 103.19691467 26.29498291 C103.21798025 31.39325917 103.22832407 36.49153579 103.23828125 41.58984375 C103.24232884 43.34601927 103.24644576 45.10219463 103.25063133 46.85836983 C103.26969389 55.11463473 103.28391881 63.37089067 103.2922433 71.62717336 C103.30199946 81.14590389 103.32827195 90.66440085 103.36874419 100.18304914 C103.39896873 107.5454105 103.41371845 114.90770519 103.41702431 122.27012736 C103.41936895 126.66417295 103.42825154 131.05796936 103.45348549 135.45194817 C103.47688025 139.5929437 103.48095402 143.73352809 103.47072411 147.87457275 C103.47023128 149.38738439 103.47647642 150.90021703 103.49028015 152.41296577 C103.61314228 166.68653452 100.5168568 177.12855409 91 188 C83.83264662 194.69508591 73.94060748 200.20048284 64 200 C64.03607613 201.06087326 64.07215225 202.12174652 64.10932159 203.21476746 C64.99347509 229.22383722 65.86973053 255.23316435 66.73806 281.24276733 C67.15818155 293.8216378 67.58071854 306.40041783 68.00927734 318.97900391 C68.38351193 329.96331631 68.75287317 340.94778084 69.11676931 351.93244076 C69.30898148 357.72977135 69.50336957 363.5270075 69.70362854 369.32406616 C70.43526465 390.55432504 71.14545713 411.79110982 71.32092381 433.03459167 C71.33718832 434.75538117 71.35992688 436.47612413 71.38977718 438.19673157 C71.55391288 448.24531398 71.57248675 455.68602891 64.6875 463.6875 C57.5868165 469.79739045 52.87095736 472.19659308 43.3125 472.3125 C42.53455078 472.34150391 41.75660156 472.37050781 40.95507812 472.40039062 C33.79221316 472.47805305 28.72537046 470.34508621 23.3125 465.6875 C17.63975297 459.09484804 14.84487644 454.61154664 14.84851074 445.73242188 C14.84564969 444.98774155 14.84278864 444.24306122 14.83984089 443.47581482 C14.8335872 440.97341324 14.83674852 438.47115328 14.84179688 435.96875 C14.84248137 435.09111496 14.84316587 434.21347992 14.84387112 433.30924988 C14.87651081 410.83704592 15.63774474 388.38986781 16.41350365 365.93334579 C16.61456211 360.07071629 16.80785235 354.20782993 17.0020752 348.3449707 C17.36863021 337.31404594 17.7418596 326.28335825 18.11767817 315.25274563 C18.54622403 302.66456914 18.96703832 290.07613758 19.38730335 277.48768234 C20.24978876 251.65816868 21.12165804 225.82897899 22 200 C20.73397949 199.84926025 19.46795898 199.69852051 18.16357422 199.54321289 C7.49219043 198.27261603 -1.06093896 192.69455795 -8.04296875 184.64453125 C-16.05075173 173.904882 -17.59641628 163.33388543 -17.53344727 150.25073242 C-17.54051879 148.69235421 -17.54926895 147.13398287 -17.55955505 145.57562256 C-17.58190944 141.37547761 -17.57914404 137.17571189 -17.57023358 132.97553039 C-17.56510001 129.46126416 -17.57243459 125.94706772 -17.57970566 122.4328087 C-17.59665701 114.14435183 -17.59318322 105.85607933 -17.57641602 97.56762695 C-17.5594596 89.02575253 -17.57538808 80.48438784 -17.6076389 71.94256896 C-17.6343342 64.59280666 -17.64161216 57.24320306 -17.63312382 49.89339715 C-17.6281993 45.51025417 -17.63038586 41.1274185 -17.65091133 36.74431419 C-17.66927044 32.62770065 -17.66330772 28.51182247 -17.63871193 24.39524841 C-17.63370663 22.88679686 -17.63718666 21.3782892 -17.64986038 19.86988258 C-17.74898695 7.0572578 -17.74898695 7.0572578 -14.58555603 3.11860657 C-9.98956702 -0.6473503 -5.81202154 -0.8188453 0 0 Z M-7 8 C-9.71601407 10.71601407 -9.25364792 12.14832958 -9.26069641 15.95045471 C-9.26778122 17.21914902 -9.27486603 18.48784332 -9.28216553 19.79498291 C-9.27987141 21.2091068 -9.27736167 22.62323035 -9.2746582 24.03735352 C-9.2790036 25.52056638 -9.28418617 27.003777 -9.29014587 28.48698425 C-9.3035729 32.52455658 -9.30410993 36.56203551 -9.30158257 40.59962583 C-9.30051431 43.97147596 -9.30539307 47.34330709 -9.310188 50.71515316 C-9.32129823 58.67608329 -9.32171358 66.63696625 -9.31567383 74.59790039 C-9.30964616 82.80028781 -9.32191075 91.00250317 -9.3432439 99.20486122 C-9.36089219 106.25043026 -9.36685575 113.29594472 -9.36360615 120.34153503 C-9.36179662 124.5476641 -9.36439546 128.75367074 -9.37832069 132.95977974 C-9.39094522 136.92180926 -9.38891149 140.88357254 -9.37590981 144.84559822 C-9.37355364 146.29473462 -9.37624408 147.74389 -9.38453293 149.19300461 C-9.45590572 162.64872796 -7.04010439 172.63483922 2.1875 182.6875 C9.25896723 189.34836591 16.91439372 191.53260137 26.41015625 192.640625 C29 193 29 193 30 194 C30.03492829 196.7341998 30.00388048 199.44010389 29.92848206 202.17207336 C29.90875631 203.0264146 29.88903056 203.88075584 29.86870706 204.76098621 C29.80130005 207.60944914 29.7261558 210.45764963 29.65063477 213.3059082 C29.60086047 215.31073339 29.55132412 217.3155645 29.50201511 219.32040119 C29.00120832 239.28248008 28.35678835 259.23985622 27.68703151 279.19685531 C27.51939941 284.21371132 27.3550898 289.23067611 27.19056702 294.24763489 C26.66971206 310.11395976 26.14449766 325.98013923 25.61575371 341.84620315 C25.26527435 352.36308686 24.91718655 362.88004374 24.5735274 373.39715272 C24.41154037 378.34990861 24.24803774 383.30260325 24.08061028 388.25517845 C23.70287838 399.44552429 23.34910808 410.63596508 23.05760717 421.82891798 C23.00237411 423.91052511 22.94270591 425.9919654 22.88234329 428.07342911 C22.78823264 431.58196667 22.72263169 435.08950449 22.67016602 438.59887695 C22.64145637 439.56545573 22.61274672 440.53203451 22.58316708 441.52790356 C22.53724656 448.11922238 23.7934057 453.62208772 28.44793034 458.52528858 C33.72183413 463.11158283 37.61859676 464.40501257 44.46875 464.25390625 C50.20289716 463.67872174 54.93329205 461.06670795 59 457 C62.93356687 451.11971792 63.55121019 446.02860853 63.34570312 439.09082031 C63.33017647 438.03679646 63.31464981 436.9827726 63.29865265 435.89680862 C63.24094741 432.68751927 63.15974149 429.47973852 63.06602859 426.27131844 C62.99519305 423.8346457 62.92930406 421.39786763 62.86386108 418.96104431 C62.49235548 405.3304418 62.04362775 391.70260354 61.58649635 378.07464886 C61.38709777 372.1005097 61.19274559 366.12620639 60.9979248 360.1519165 C60.62913565 348.8633566 60.25658548 337.57492465 59.88232183 326.28654504 C59.21151705 306.05335711 58.54511841 285.82002491 57.88323069 265.58654332 C57.65126287 258.50084803 57.41696786 251.41523474 57.18074799 244.32967997 C57.03413783 239.92055518 56.8892639 235.51137449 56.7448101 231.10217857 C56.67783855 229.06932043 56.61013832 227.03648614 56.54162788 225.00367928 C55.68937919 199.69118379 55.68937919 199.69118379 56 194 C57.76042254 192.23957746 60.48014055 192.5745258 62.875 192.3125 C73.61099464 190.70151285 82.31304367 185.59751528 89 177 C93.32346777 169.93797659 95.12125382 163.92135407 95.13371277 155.64167786 C95.13797775 154.35874344 95.14224274 153.07580902 95.14663696 151.7539978 C95.14628749 150.33966061 95.14582598 148.92532345 95.14526367 147.51098633 C95.14825697 146.0159751 95.1516599 144.52096464 95.15544128 143.0259552 C95.16426406 138.97252312 95.16661856 134.91911215 95.16725707 130.8656714 C95.16820722 127.483075 95.17188639 124.10048351 95.17542917 120.71788901 C95.18356575 112.74234339 95.18601398 104.76680906 95.18530273 96.79125977 C95.18470086 88.55519614 95.19527639 80.31919778 95.2110464 72.08315068 C95.22409997 65.01470881 95.22948761 57.94628834 95.22884732 50.8778345 C95.22859187 46.65467099 95.23146986 42.4315656 95.24202538 38.20841408 C95.25167069 34.24149526 95.25181027 30.27469059 95.24450874 26.30776787 C95.24345872 24.84923766 95.24585039 23.39070048 95.2518692 21.93218231 C95.25953238 19.94725947 95.25377085 17.9622981 95.24723816 15.97737122 C95.24778293 14.86480863 95.24832769 13.75224604 95.24888897 12.60596943 C95.26369536 9.83924484 95.26369536 9.83924484 93 8 C89.69316534 8.28983269 89.69316534 8.28983269 87 10 C86.8986177 11.5067546 86.86648171 13.01822658 86.86196899 14.52838135 C86.85651566 15.50698624 86.85106232 16.48559113 86.84544373 17.49385071 C86.8444014 18.57643661 86.84335907 19.65902252 86.84228516 20.77441406 C86.83720444 21.90769638 86.83212372 23.0409787 86.82688904 24.20860291 C86.81615756 26.67933621 86.80754837 29.15007941 86.80076981 31.62082672 C86.78902258 35.5289068 86.76958014 39.43687426 86.74765015 43.34490967 C86.68567615 54.45987956 86.63174171 65.57484535 86.59863281 76.68994141 C86.57831846 83.47982257 86.54242565 90.26949325 86.49787521 97.05925751 C86.48369059 99.65081141 86.47498725 102.24240122 86.47182083 104.833992 C86.46692388 108.45888037 86.44379519 112.08322875 86.41650391 115.70800781 C86.42101311 117.31974129 86.42101311 117.31974129 86.4256134 118.96403503 C86.32352982 128.07347695 86.32352982 128.07347695 83 132 C80.11528002 134.32380221 78.24413376 134.96448964 74.5625 135.5 C69.80802675 134.83270551 68.32778845 133.40702151 65 130 C64.03156818 127.09470454 63.8688302 125.23377209 63.85523987 122.21092224 C63.84834137 121.22523254 63.84144287 120.23954285 63.83433533 119.22398376 C63.83172195 118.14387527 63.82910858 117.06376678 63.82641602 115.95092773 C63.819729 114.81253448 63.81304199 113.67414124 63.80615234 112.50125122 C63.79209011 110.02618422 63.78019981 107.55110415 63.77020454 105.07601738 C63.7538259 101.16440441 63.73059116 97.25288877 63.70530701 93.34132385 C63.63410068 82.21889344 63.57424152 71.09641758 63.52319336 59.97387695 C63.49190738 53.1752589 63.45023189 46.37675907 63.40299797 39.57823372 C63.38693434 36.98140546 63.37463309 34.3845512 63.36609077 31.7876873 C63.35399878 28.16490017 63.32987636 24.54238072 63.30297852 20.91967773 C63.30238937 19.83754501 63.30180023 18.75541229 63.30119324 17.64048767 C63.29147491 16.6576178 63.28175659 15.67474792 63.27174377 14.66209412 C63.26751184 13.80503592 63.2632799 12.94797773 63.25891972 12.06494808 C63.18661282 9.77752014 63.18661282 9.77752014 61 8 C57.69316534 8.28983269 57.69316534 8.28983269 55 10 C54.8986177 11.5067546 54.86648171 13.01822658 54.86196899 14.52838135 C54.85651566 15.50698624 54.85106232 16.48559113 54.84544373 17.49385071 C54.84388023 19.11772957 54.84388023 19.11772957 54.84228516 20.77441406 C54.83720444 21.90769638 54.83212372 23.0409787 54.82688904 24.20860291 C54.81615756 26.67933621 54.80754837 29.15007941 54.80076981 31.62082672 C54.78902258 35.5289068 54.76958014 39.43687426 54.74765015 43.34490967 C54.68567615 54.45987956 54.63174171 65.57484535 54.59863281 76.68994141 C54.57831846 83.47982257 54.54242565 90.26949325 54.49787521 97.05925751 C54.48369059 99.65081141 54.47498725 102.24240122 54.47182083 104.833992 C54.46692388 108.45888037 54.44379519 112.08322875 54.41650391 115.70800781 C54.41951004 116.7824968 54.42251617 117.85698578 54.4256134 118.96403503 C54.32352982 128.07347695 54.32352982 128.07347695 51 132 C48.11528002 134.32380221 46.24413376 134.96448964 42.5625 135.5 C37.80802675 134.83270551 36.32778845 133.40702151 33 130 C32.03156818 127.09470454 31.8688302 125.23377209 31.85523987 122.21092224 C31.84834137 121.22523254 31.84144287 120.23954285 31.83433533 119.22398376 C31.83172195 118.14387527 31.82910858 117.06376678 31.82641602 115.95092773 C31.819729 114.81253448 31.81304199 113.67414124 31.80615234 112.50125122 C31.79209011 110.02618422 31.78019981 107.55110415 31.77020454 105.07601738 C31.7538259 101.16440441 31.73059116 97.25288877 31.70530701 93.34132385 C31.63410068 82.21889344 31.57424152 71.09641758 31.52319336 59.97387695 C31.49190738 53.1752589 31.45023189 46.37675907 31.40299797 39.57823372 C31.38693434 36.98140546 31.37463309 34.3845512 31.36609077 31.7876873 C31.35399878 28.16490017 31.32987636 24.54238072 31.30297852 20.91967773 C31.30238937 19.83754501 31.30180023 18.75541229 31.30119324 17.64048767 C31.28661575 16.16618286 31.28661575 16.16618286 31.27174377 14.66209412 C31.26751184 13.80503592 31.2632799 12.94797773 31.25891972 12.06494808 C31.18661282 9.77752014 31.18661282 9.77752014 29 8 C25.69316534 8.28983269 25.69316534 8.28983269 23 10 C22.8986177 11.5067546 22.86648171 13.01822658 22.86196899 14.52838135 C22.85651566 15.50698624 22.85106232 16.48559113 22.84544373 17.49385071 C22.84388023 19.11772957 22.84388023 19.11772957 22.84228516 20.77441406 C22.83720444 21.90769638 22.83212372 23.0409787 22.82688904 24.20860291 C22.81615756 26.67933621 22.80754837 29.15007941 22.80076981 31.62082672 C22.78902258 35.5289068 22.76958014 39.43687426 22.74765015 43.34490967 C22.68567615 54.45987956 22.63174171 65.57484535 22.59863281 76.68994141 C22.57831846 83.47982257 22.54242565 90.26949325 22.49787521 97.05925751 C22.48369059 99.65081141 22.47498725 102.24240122 22.47182083 104.833992 C22.46692388 108.45888037 22.44379519 112.08322875 22.41650391 115.70800781 C22.41951004 116.7824968 22.42251617 117.85698578 22.4256134 118.96403503 C22.32352982 128.07347695 22.32352982 128.07347695 19 132 C16.11528002 134.32380221 14.24413376 134.96448964 10.5625 135.5 C5.80802675 134.83270551 4.32778845 133.40702151 1 130 C0.03156818 127.09470454 -0.1311698 125.23377209 -0.14476013 122.21092224 C-0.15165863 121.22523254 -0.15855713 120.23954285 -0.16566467 119.22398376 C-0.16827805 118.14387527 -0.17089142 117.06376678 -0.17358398 115.95092773 C-0.180271 114.81253448 -0.18695801 113.67414124 -0.19384766 112.50125122 C-0.20790989 110.02618422 -0.21980019 107.55110415 -0.22979546 105.07601738 C-0.2461741 101.16440441 -0.26940884 97.25288877 -0.29469299 93.34132385 C-0.36589932 82.21889344 -0.42575848 71.09641758 -0.47680664 59.97387695 C-0.50809262 53.1752589 -0.54976811 46.37675907 -0.59700203 39.57823372 C-0.61306566 36.98140546 -0.62536691 34.3845512 -0.63390923 31.7876873 C-0.64600122 28.16490017 -0.67012364 24.54238072 -0.69702148 20.91967773 C-0.69761063 19.83754501 -0.69819977 18.75541229 -0.69880676 17.64048767 C-0.70852509 16.6576178 -0.71824341 15.67474792 -0.72825623 14.66209412 C-0.73248816 13.80503592 -0.7367201 12.94797773 -0.74108028 12.06494808 C-0.81338718 9.77752014 -0.81338718 9.77752014 -3 8 C-4.32 8 -5.64 8 -7 8 Z " fill="#010000" transform="translate(133,20)"/>
<path d="M0 0 C0 150.48 0 300.96 0 456 C-9.13144759 454.85856905 -9.13144759 454.85856905 -12.25 452.5 C-12.87390625 452.0565625 -13.4978125 451.613125 -14.140625 451.15625 C-19.87158053 444.51026795 -20.55792216 437.29987213 -20.29016113 428.83889771 C-20.27312653 427.79052203 -20.25609193 426.74214636 -20.23854113 425.66200173 C-20.18035197 422.44044313 -20.09290009 419.22072439 -20 416 C-19.95673615 414.13153718 -19.91421555 412.26305695 -19.87254333 410.39455795 C-19.73630411 404.78763366 -19.54862855 399.18291097 -19.35742188 393.57763672 C-19.28811469 391.45891926 -19.21916126 389.3401902 -19.15052795 387.22145081 C-19.00382648 382.71518157 -18.85472137 378.20900115 -18.70362854 373.70287704 C-18.46431939 366.5645925 -18.23077114 359.42612603 -17.9979248 352.28762817 C-17.58716671 339.71667932 -17.17165836 327.14589095 -16.75506592 314.57513428 C-16.12707814 295.62398986 -15.50301624 276.67271656 -14.88323069 257.72130215 C-14.65135995 250.63671843 -14.41705381 243.55222082 -14.18074799 236.46778369 C-14.03402743 232.05642822 -13.88918788 227.64501234 -13.7448101 223.23357964 C-13.67789563 221.2011405 -13.61019891 219.16872693 -13.54162788 217.136343 C-13.36367768 211.85630799 -13.19828114 206.57635615 -13.0619297 201.29507208 C-13.02127459 199.78842171 -12.9758304 198.28189142 -12.92513084 196.7755456 C-12.85963062 194.78561454 -12.8152422 192.79502033 -12.77233887 190.80447388 C-12.74333244 189.71895296 -12.71432602 188.63343204 -12.68444061 187.51501656 C-12.78857521 186.68506109 -12.89270981 185.85510563 -13 185 C-16.06253263 182.95831158 -17.89231767 182.48446008 -21.4375 181.75 C-35.9967569 178.17588639 -47.60598051 170.04174564 -55.9375 157.5625 C-70.06366647 133.21886361 -72.01357865 103.00527507 -65 76 C-64.69158166 74.65058687 -64.38702701 73.30028602 -64.0859375 71.94921875 C-59.93425584 53.76498168 -52.72583398 36.61775449 -41 22 C-40.36191406 21.19691406 -39.72382813 20.39382812 -39.06640625 19.56640625 C-28.99912286 7.55453693 -15.7022672 0 0 0 Z " fill="#FDD200" transform="translate(352,28)"/>
<path d="M0 0 C26.18978568 21.19173497 38.81490477 53.07707204 42.79205322 85.88426208 C43.12018713 89.22283433 43.18209281 92.55858726 43.203125 95.91015625 C43.20882507 96.64012314 43.21452515 97.37009003 43.22039795 98.12217712 C43.2297792 99.65915511 43.23635428 101.19615258 43.24023438 102.7331543 C43.24987534 105.03276663 43.28093718 107.33145828 43.3125 109.63085938 C43.47101635 131.71435371 37.86643682 154.3365701 22.3515625 170.83984375 C12.55519165 179.83883558 1.26977029 186.22107445 -12 188 C-11.96392387 189.07118073 -11.92784775 190.14236145 -11.89067841 191.2460022 C-11.0066008 217.50543299 -10.1303441 243.76511629 -9.26194 270.02507019 C-8.84178433 282.72500659 -8.4192351 295.42485431 -7.99072266 308.12451172 C-7.61653684 319.21430268 -7.24717611 330.30424294 -6.88323069 341.39437485 C-6.69098662 347.24759442 -6.49658518 353.10072148 -6.29637146 358.95367432 C-5.56733005 380.31704922 -4.85568097 401.68708981 -4.67907619 423.06350517 C-4.66281381 424.7830397 -4.64007715 426.5025277 -4.61022282 428.22187996 C-4.44603152 438.26240357 -4.4329515 445.69234904 -11.3125 453.6875 C-18.4131835 459.79739045 -23.12904264 462.19659308 -32.6875 462.3125 C-33.46544922 462.34150391 -34.24339844 462.37050781 -35.04492188 462.40039062 C-42.20778684 462.47805305 -47.27462954 460.34508621 -52.6875 455.6875 C-58.35482969 449.10114387 -61.15512747 444.6187627 -61.15148926 435.74780273 C-61.15435031 435.00434412 -61.15721136 434.26088551 -61.16015911 433.49489784 C-61.16641448 430.99524981 -61.16325018 428.4957435 -61.15820312 425.99609375 C-61.15751863 425.11897673 -61.15683413 424.2418597 -61.15612888 423.33816338 C-61.12327273 400.72200583 -60.35960407 378.13015139 -59.58649635 355.52948761 C-59.38548502 349.61080058 -59.19216605 343.6918616 -58.9979248 337.77294922 C-58.63131994 326.63578004 -58.25810239 315.49884339 -57.88232183 304.36198044 C-57.45382727 291.65288389 -57.03298943 278.94353711 -56.61269665 266.2341671 C-55.75013191 240.15583061 -54.8782705 214.07781195 -54 188 C-54.61819107 187.86518723 -55.23638214 187.73037445 -55.87330627 187.59147644 C-56.68412155 187.41328873 -57.49493683 187.23510101 -58.33032227 187.05151367 C-59.13413834 186.8754509 -59.93795441 186.69938812 -60.76612854 186.51799011 C-75.84882706 183.02061399 -89.21993452 172.02695072 -97.36035156 159.04638672 C-101.95194917 151.20001372 -104.89710009 142.83360669 -107 134 C-107.18618896 133.22833496 -107.37237793 132.45666992 -107.56420898 131.66162109 C-109.3698123 123.15304666 -109.35445426 114.6528078 -109.3125 106 C-109.31067719 105.22343048 -109.30885437 104.44686096 -109.30697632 103.64675903 C-109.26038171 91.86409027 -108.75122088 80.50313613 -106 69 C-105.83371094 68.26652344 -105.66742188 67.53304687 -105.49609375 66.77734375 C-99.49122658 40.84521369 -86.28629643 13.18712815 -63.5 -1.875 C-43.82132617 -13.69335369 -18.8372601 -13.78336105 0 0 Z M-73.28222656 18.51611328 C-88.55591863 37.64007268 -95.91485155 60.18505921 -100 84 C-100.1757959 84.94560791 -100.3515918 85.89121582 -100.53271484 86.86547852 C-104.34061596 112.40865636 -100.56634458 139.94156307 -85 161 C-75.01525439 173.04105204 -61.82215503 178.43170342 -47 182 C-46 183 -46 183 -45.87975311 185.41736031 C-45.93746791 196.32843121 -46.27467298 207.22403803 -46.64257812 218.12841797 C-46.71175056 220.22943958 -46.78070918 222.33046824 -46.84947205 224.4315033 C-46.99717094 228.93243504 -47.14624275 233.43331842 -47.29637146 237.93416977 C-47.5344052 245.07444053 -47.76855548 252.2148355 -48.0020752 259.35525513 C-48.62468513 278.37534204 -49.25200825 297.39527281 -49.88232183 316.41510594 C-50.29673429 328.92034556 -50.70886151 341.42565592 -51.11676931 353.93110955 C-51.34767206 361.00457798 -51.58208166 368.07791816 -51.81925201 375.15117908 C-51.96707964 379.58484177 -52.11156375 384.01860914 -52.2551899 388.45240974 C-52.32153769 390.48065867 -52.38918788 392.50886557 -52.45837212 394.53701973 C-52.64669358 400.06939285 -52.81024875 405.60139326 -52.93367577 411.13561392 C-52.98013252 413.14197064 -53.0331187 415.14818189 -53.09098244 417.15424204 C-53.1790376 420.38239833 -53.23769595 423.60998647 -53.29016113 426.83889771 C-53.32126338 427.82169704 -53.35236564 428.80449638 -53.38441038 429.81707752 C-53.45908425 437.18537594 -52.158515 443.65355032 -46.96484375 449.15625 C-46.29582031 449.5996875 -45.62679687 450.043125 -44.9375 450.5 C-43.93009766 451.19609375 -43.93009766 451.19609375 -42.90234375 451.90625 C-38.41485582 454.48632519 -34.02873545 454.56315492 -29 454 C-22.65011308 452.20189286 -18.62353572 449.49020564 -15 444 C-12.514921 438.41590046 -12.74013258 433.04986885 -12.8203125 427.05859375 C-12.82789581 425.9964415 -12.83547913 424.93428925 -12.84329224 423.83995056 C-12.94145476 413.93648842 -13.30399826 404.04781527 -13.73995972 394.15432739 C-14.70192991 372.12944907 -15.36341737 350.10000162 -15.9375 328.0625 C-16.49358648 306.74130314 -17.09866702 285.4226669 -17.79296875 264.10546875 C-17.82728186 263.05100618 -17.86159496 261.99654362 -17.89694786 260.91012764 C-18.23806936 250.44282821 -18.58340496 239.97567464 -18.93441868 229.50870228 C-19.06485049 225.60905282 -19.19369097 221.70935166 -19.32227516 217.80964088 C-19.41111127 215.13570602 -19.50234468 212.46186032 -19.59367371 209.78800964 C-19.89192357 200.85359854 -20.08470937 191.9405405 -20 183 C-18.845 182.649375 -17.69 182.29875 -16.5 181.9375 C-5.53263249 178.24121949 5.50729431 174.08259515 14 166 C14.67160156 165.37996094 15.34320313 164.75992188 16.03515625 164.12109375 C26.54015655 153.45416667 31.10565771 139.3408937 34 125 C34.19335938 124.23042969 34.38671875 123.46085937 34.5859375 122.66796875 C39.57046815 90.55066278 30.82870486 51.57057624 12.0625 25.1875 C10.72797 23.44313353 9.37428424 21.71322139 8 20 C7.36191406 19.19691406 6.72382813 18.39382812 6.06640625 17.56640625 C-1.67289206 8.33219317 -12.88693362 0.17639487 -25 -2 C-44.4006601 -3.3193314 -60.4986175 3.40068825 -73.28222656 18.51611328 Z " fill="#020100" transform="translate(385,30)"/>
<path d="M0 0 C4.55555556 0.55555556 4.55555556 0.55555556 6 2 C6.1013823 3.5067546 6.13351829 5.01822658 6.13803101 6.52838135 C6.14348434 7.50698624 6.14893768 8.48559113 6.15455627 9.49385071 C6.1555986 10.57643661 6.15664093 11.65902252 6.15771484 12.77441406 C6.16533592 14.47433754 6.16533592 14.47433754 6.17311096 16.20860291 C6.18384244 18.67933621 6.19245163 21.15007941 6.19923019 23.62082672 C6.21097742 27.5289068 6.23041986 31.43687426 6.25234985 35.34490967 C6.31432385 46.45987956 6.36825829 57.57484535 6.40136719 68.68994141 C6.42168154 75.47982257 6.45757435 82.26949325 6.50212479 89.05925751 C6.51630941 91.65081141 6.52501275 94.24240122 6.52817917 96.833992 C6.53307612 100.45888037 6.55620481 104.08322875 6.58349609 107.70800781 C6.58048996 108.7824968 6.57748383 109.85698578 6.5743866 110.96403503 C6.64570226 117.32789758 7.20225089 121.10233128 11.75 125.8125 C15.00171564 127.52868326 17.37460162 127.38162088 21 127 C25.23631238 125.17068329 27.12569652 123.18542591 29 119 C29.45098559 115.24297405 29.41676179 111.50414832 29.40063477 107.72387695 C29.40761383 106.58519165 29.4145929 105.44650635 29.42178345 104.27331543 C29.44177131 100.51156222 29.44126002 96.75008285 29.44140625 92.98828125 C29.45317365 90.3770422 29.46653629 87.76580988 29.48143005 85.15458679 C29.52235649 77.57835947 29.54100595 70.00215524 29.55760193 62.42584229 C29.581494 52.11726748 29.62096026 41.8088159 29.67487907 31.50035667 C29.69126789 27.64582143 29.69499095 23.79140974 29.69789124 19.93684387 C29.70766217 17.58720685 29.71792456 15.23757181 29.72875977 12.88793945 C29.72620682 11.80894882 29.72365387 10.72995819 29.72102356 9.61827087 C29.72785156 8.63829132 29.73467957 7.65831177 29.74171448 6.64863586 C29.74334878 5.79417531 29.74498308 4.93971476 29.74666691 4.05936146 C30 2 30 2 32 0 C36.55555556 0.55555556 36.55555556 0.55555556 38 2 C38.1032186 3.94122159 38.13522429 5.88624337 38.14044189 7.8302002 C38.14615204 9.09751984 38.15186218 10.36483948 38.15774536 11.67056274 C38.15899089 13.08831777 38.16011595 14.50607291 38.16113281 15.92382812 C38.16575884 17.40689213 38.1707832 18.88995495 38.17617798 20.37301636 C38.18933166 24.41475439 38.19575361 28.45647578 38.20018864 32.49823189 C38.20311681 35.02418874 38.20722131 37.55014102 38.21169281 40.07609558 C38.22538045 47.98103264 38.23503881 55.88595929 38.2388947 63.79090738 C38.24336768 72.91117453 38.2608748 82.03129122 38.2898953 91.15151262 C38.31154676 98.20129975 38.32160096 105.25104469 38.32293582 112.3008647 C38.3239821 116.51037337 38.32985114 120.71974086 38.34775543 124.92921448 C38.3642943 128.89531928 38.36636358 132.86117774 38.35761642 136.82730484 C38.35684894 138.27805875 38.36115052 139.72882619 38.37107468 141.17954636 C38.45773567 154.64497368 36.04655985 164.62780657 26.8125 174.6875 C19.74103277 181.34836591 12.08560628 183.53260137 2.58984375 184.640625 C0.07467524 184.72425588 0.07467524 184.72425588 -1 186 C-1.03492829 188.7341998 -1.00388048 191.44010389 -0.92848206 194.17207336 C-0.90875631 195.0264146 -0.88903056 195.88075584 -0.86870706 196.76098621 C-0.80130005 199.60944914 -0.7261558 202.45764963 -0.65063477 205.3059082 C-0.60086047 207.31073339 -0.55132412 209.3155645 -0.50201511 211.32040119 C-0.00120832 231.28248008 0.64321165 251.23985622 1.31296849 271.19685531 C1.48060059 276.21371132 1.6449102 281.23067611 1.80943298 286.24763489 C2.33028794 302.11395976 2.85550234 317.98013923 3.38424629 333.84620315 C3.73472565 344.36308686 4.08281345 354.88004374 4.4264726 365.39715272 C4.58845963 370.34990861 4.75196226 375.30260325 4.91938972 380.25517845 C5.29712162 391.44552429 5.65089192 402.63596508 5.94239283 413.82891798 C5.99762589 415.91052511 6.05729409 417.9919654 6.11765671 420.07342911 C6.21176736 423.58196667 6.27736831 427.08950449 6.32983398 430.59887695 C6.35854363 431.56545573 6.38725328 432.53203451 6.41683292 433.52790356 C6.46539417 440.49826591 4.86871719 445.82392026 0.140625 451.05859375 C-0.48328125 451.51363281 -1.1071875 451.96867187 -1.75 452.4375 C-2.36359375 452.91058594 -2.9771875 453.38367188 -3.609375 453.87109375 C-6 455 -6 455 -14 456 C-14 347.76 -14 239.52 -14 128 C-11.69 127.01 -9.38 126.02 -7 125 C-4.4757517 122.98060136 -4.05166468 122.15499404 -3 119 C-2.90316403 117.40585005 -2.86242009 115.80799447 -2.85523987 114.21092224 C-2.84834137 113.22523254 -2.84144287 112.23954285 -2.83433533 111.22398376 C-2.83172195 110.14387527 -2.82910858 109.06376678 -2.82641602 107.95092773 C-2.819729 106.81253448 -2.81304199 105.67414124 -2.80615234 104.50125122 C-2.79209011 102.02618422 -2.78019981 99.55110415 -2.77020454 97.07601738 C-2.7538259 93.16440441 -2.73059116 89.25288877 -2.70530701 85.34132385 C-2.63410068 74.21889344 -2.57424152 63.09641758 -2.52319336 51.97387695 C-2.49190738 45.1752589 -2.45023189 38.37675907 -2.40299797 31.57823372 C-2.38693434 28.98140546 -2.37463309 26.3845512 -2.36609077 23.7876873 C-2.35399878 20.16490017 -2.32987636 16.54238072 -2.30297852 12.91967773 C-2.30238937 11.83754501 -2.30180023 10.75541229 -2.30119324 9.64048767 C-2.28661575 8.16618286 -2.28661575 8.16618286 -2.27174377 6.66209412 C-2.26751184 5.80503592 -2.2632799 4.94797773 -2.25891972 4.06494808 C-2 2 -2 2 0 0 Z " fill="#FAB712" transform="translate(190,28)"/>
</svg>
